<?xml version="1.0" encoding="utf-8"?>
<!-- Generator: Adobe Illustrator 21.1.0, SVG Export Plug-In . SVG Version: 6.00 Build 0)  -->
<svg version="1.1" id="Layer_1" xmlns="http://www.w3.org/2000/svg" xmlns:xlink="http://www.w3.org/1999/xlink" x="0px" y="0px"
	 viewBox="0 0 993.8 216.3" style="enable-background:new 0 0 993.8 216.3;" xml:space="preserve">
<path d="M992.8,207.1v-91c0-8.9-5.7-13.8-10.3-15.5c4.3-2,9.8-6.6,9.8-17.8V21.2c0-13.2-7.5-19.8-17.2-19.8h-43.6v213.5h28.1v-98.1
	h1.8c2.9,0,3.2,1.7,3.2,3.7V208c0,3.2,0.9,5.7,2,6.9h27.3v-0.6C993.3,212.6,992.8,210.3,992.8,207.1z M964.6,89
	c0,2.6-0.9,3.7-3.2,3.7h-2V23h2.3c2.6,0,2.9,1.1,2.9,3.7V89z"/>
<polygon points="665.3,1.4 665.3,214.9 923.8,214.9 923.8,154.6 772.6,154.6 772.6,136.2 921,136.2 921,77.8 772.6,77.8 772.6,61.1 
	922.7,61.1 922.7,1.4 "/>
<path d="M614.8,216.3c9.5,0,15.2-6.9,18.9-12.6c0.9,2.6,2.6,8.3,2.9,11.2h18.9V90.1h-31.8v21.8h5.5v76c0,3.4-1.4,5.2-4,5.2
	s-3.7-1.7-3.7-5.2V27.8c0-2.6,0.6-4.3,2.9-4.3c2.9,0,3.2,1.7,3.2,4.3v55.4h27V26.4c0-13.5-6-26.4-28.4-26.4h-3.7
	C600.2,0,593,12.9,593,28.1v161.2c0,14.6,6.9,27,21.2,27H614.8z"/>
<polygon points="459.9,1.4 459.9,214.9 508.7,214.9 508.7,109.6 535.4,214.9 587,214.9 587,1.4 538.8,1.4 538.8,98.4 516.7,1.4 "/>
<path d="M426.6,1.4h-71.4l-27.8,213.5h49.3l2.6-26.4h20.1l2.8,26.4h55.4L426.6,1.4z M384,140.6l5.1-53.4l5.5,53.4H384z"/>
<path d="M273.4,93.6c21.2-4.3,42.5-18.4,42.5-42.5v-1.7c0-23.8-16.1-47.9-80.9-47.9H0v213.4h235c70.3,0,93.5-29,93.5-62.5v-2.3
	C328.5,111.9,300.7,98.5,273.4,93.6z M109,56.8h76.3c13.5,0,19.2,1.7,19.2,9.8v0.6c0,7.5-5.7,10.3-19.2,10.3H109V56.8z M212.6,144
	c0,8-4,13.5-23,13.5H109v-26.4h80.6c18.6,0,23,4.3,23,12.3V144z"/>
</svg>
