<?xml version="1.0" encoding="utf-8"?>
<!-- Generator: Adobe Illustrator 21.1.0, SVG Export Plug-In . SVG Version: 6.00 Build 0)  -->
<svg version="1.1" id="Layer_1" xmlns="http://www.w3.org/2000/svg" xmlns:xlink="http://www.w3.org/1999/xlink" x="0px" y="0px"
	 viewBox="0 0 993.8 216.3" style="enable-background:new 0 0 993.8 216.3;" xml:space="preserve">
<path d="M959.4,116.8h2c2.9,0,3.2,1.7,3.2,3.7V208c0,3.2,0.9,5.7,2,6.9h27.3v-0.6c-0.6-1.7-1.1-4-1.1-7.2v-91
	c0-8.9-5.7-13.8-10.3-15.5c4.3-2,9.8-6.6,9.8-17.8V21.2c0-13.2-7.5-19.8-17.2-19.8h-43.6v213.5h28.1V116.8z M959.4,23h2.3
	c2.6,0,2.9,1.1,2.9,3.7v62.3c0,2.6-0.9,3.7-3.2,3.7h-2V23z M665.3,1.4v213.5h258.5v-60.3H772.6v-18.4H921V77.8H772.6V61.1h150.1V1.4
	H665.3z M614.8,216.3c9.5,0,15.2-6.9,18.9-12.6c0.9,2.6,2.6,8.3,2.9,11.2h18.9V90.1h-31.8v21.8h5.5v76c0,3.4-1.4,5.2-4,5.2
	c-2.6,0-3.7-1.7-3.7-5.2V27.8c0-2.6,0.6-4.3,2.9-4.3c2.9,0,3.2,1.7,3.2,4.3v55.4h27V26.4c0-13.5-6-26.4-28.4-26.4h-3.7
	C600.2,0,593,12.9,593,28.1v161.2c0,14.6,6.9,27,21.2,27H614.8z M459.9,1.4v213.5h48.8V109.6l26.7,105.3H587V1.4h-48.2v97l-22.1-97
	H459.9z M389.1,87.2l5.5,53.4h-10.6L389.1,87.2z M402.2,214.9h55.4l-31-213.5h-71.4l-27.8,213.5h49.3l2.6-26.4h20.1L402.2,214.9z
	 M185.3,56.8c13.5,0,19.2,1.7,19.2,9.8v0.6c0,7.5-5.7,10.3-19.2,10.3H109V56.8H185.3z M189.6,131.1c18.6,0,23,4.3,23,12.3v0.6
	c0,8-4,13.5-23,13.5H109v-26.4H189.6z M0,214.9h235c70.3,0,93.5-29,93.5-62.5v-2.3c0-38.2-27.8-51.6-55.1-56.5
	c21.2-4.3,42.5-18.4,42.5-42.5v-1.7c0-23.8-16.1-47.9-80.9-47.9H0V214.9z"/>
</svg>
